<svg width="965" height="630" viewBox="0 0 965 630" fill="none" xmlns="http://www.w3.org/2000/svg">
<rect width="965" height="630" fill="white"/>
<g clip-path="url(#clip0_1_2)">
<path d="M771 197C771 208.674 765.999 219.18 758.021 226.492C756.626 227.773 755.139 228.955 753.571 230.027C752.637 230.668 751.674 231.269 750.685 231.827C749.643 232.419 748.573 232.963 747.476 233.46C747.408 233.491 747.34 233.521 747.271 233.551C745.57 234.31 743.805 234.953 741.989 235.471C741.502 235.61 741.012 235.74 740.518 235.86C738.324 236.396 736.058 236.751 733.739 236.907C732.834 236.969 731.921 237 731 237C727.786 237 724.661 236.621 721.667 235.905C721.354 235.831 721.04 235.752 720.73 235.668C720.42 235.587 720.111 235.501 719.804 235.412C718.323 234.981 716.877 234.466 715.472 233.874C701.093 227.811 691 213.584 691 197C691 174.909 708.909 157 731 157C753.091 157 771 174.909 771 197Z" fill="#F2F2F2"/>
<path d="M740.518 221.815V235.86C738.324 236.396 736.058 236.751 733.739 236.907C732.834 236.969 731.921 237 731 237C727.786 237 724.661 236.621 721.667 235.905C721.354 235.831 721.04 235.752 720.73 235.668C720.42 235.587 720.111 235.501 719.804 235.412V221.815H740.518Z" fill="#090814"/>
<path d="M719.911 197.245L714.141 213.302L708.37 211.975L715.49 195.667C714.961 194.595 714.872 193.209 715.353 191.86C716.196 189.5 718.463 188.152 720.416 188.849C722.369 189.546 723.27 192.025 722.427 194.386C721.946 195.735 720.998 196.751 719.911 197.245Z" fill="#ED9DA0"/>
<path d="M720.295 197.607C720.242 197.607 720.189 197.601 720.136 197.588C719.931 197.54 719.76 197.404 719.669 197.214L717.881 193.502C717.778 193.288 717.791 193.04 717.915 192.838L722.008 186.162C722.119 185.981 722.303 185.862 722.513 185.836L723.251 185.744C723.535 185.709 723.818 185.855 723.951 186.11L725.577 189.213C725.691 189.432 725.68 189.697 725.548 189.906L720.88 197.284C720.837 197.352 720.784 197.411 720.721 197.46C720.597 197.556 720.448 197.607 720.295 197.607Z" fill="black"/>
<path d="M720.462 196.156C720.441 196.156 720.419 196.155 720.397 196.152C720.196 196.129 720.026 195.996 719.955 195.806L719.053 193.403C718.994 193.246 719.011 193.074 719.098 192.931L722.687 187.065C722.784 186.906 722.954 186.809 723.14 186.807C723.335 186.809 723.499 186.897 723.601 187.054L725.032 189.264C725.15 189.446 725.147 189.681 725.025 189.861L720.908 195.92C720.807 196.069 720.64 196.156 720.462 196.156Z" fill="#FF5521"/>
<path d="M737.742 186.425C737.955 181.839 734.411 177.948 729.825 177.735C725.24 177.521 721.349 181.065 721.136 185.651C720.962 189.37 723.261 192.632 726.582 193.846L727.693 204.528L736.193 198.091C736.193 198.091 734.531 195.757 733.701 193.174C736.011 191.791 737.607 189.315 737.742 186.425Z" fill="#ED9DA0"/>
<path d="M721.229 231.38L720.345 230.36L722.014 221.815L722.828 217.647L722.991 216.805L726.289 199.92L726.649 197.579L726.96 197.478L727 197.465L734.341 195.067L734.441 195.034L735.475 194.697L738.267 196.948L741.989 235.471C741.502 235.61 741.012 235.74 740.518 235.86C738.324 236.396 736.058 236.751 733.739 236.907C732.834 236.969 731.921 237 731 237C727.786 237 724.661 236.621 721.667 235.905C720.488 233.957 722.687 233.061 722.687 233.061L721.229 231.38Z" fill="#FF5521"/>
<path d="M727.28 199.47L727.2 199.791L722.991 216.805L722.866 217.312L722.828 217.647L722.342 221.815L721.229 231.38L720.73 235.668C720.42 235.587 720.111 235.501 719.804 235.412C718.323 234.981 716.877 234.466 715.472 233.874C715.736 227.516 717.7 218.18 717.733 218.024C716.468 220.365 707.466 222.885 707.466 222.885L703.865 220.37V213.339L707.286 208.655L710.889 202.712C711.118 201.968 711.461 201.438 711.88 201.069C712.328 200.672 712.863 200.459 713.439 200.365C715.212 200.074 717.375 200.9 718.585 200.933C718.928 200.944 719.195 200.89 719.354 200.731C719.435 200.65 719.524 200.573 719.621 200.498C720.823 199.572 723.137 199.109 723.137 199.109L726.829 196.239L726.838 196.306L727 197.465L727.28 199.47Z" fill="#090814"/>
<path d="M732.59 180.58C731.63 180.98 730.466 180.843 729.624 180.232C727.564 181.345 725.086 181.66 722.813 181.099C722.474 181.998 721.792 182.763 720.937 183.201C720.903 181.957 721.33 180.705 722.117 179.74C721.403 180.061 720.688 180.382 719.974 180.703C720.507 179.932 721.041 179.162 721.574 178.391L721.696 178.286C721.051 178.11 720.406 177.933 719.761 177.757C720.981 177.128 722.399 176.894 723.756 177.096C723.518 176.535 722.979 176.112 722.377 176.014C723.8 175.713 725.223 175.411 726.647 175.11L726.598 175.285C728.507 174.855 730.471 174.423 732.404 174.726C734.337 175.028 736.259 176.242 736.808 178.12L736.817 178.019C737.976 178.045 739.109 178.639 739.788 179.579C740.467 180.518 740.677 181.781 740.338 182.889C739.931 184.219 738.791 185.35 738.85 186.74L738.798 186.751C739.176 188.872 735.464 191.977 733.674 193.176C734.432 192.822 735.329 191.464 735.115 190.655C734.9 189.846 736.849 186.803 736.015 186.872C735.547 186.911 733.005 186.201 732.655 185.186C732.36 184.331 732.062 183.407 732.321 182.54C732.423 182.198 732.608 181.885 732.703 181.541C732.799 181.197 732.788 180.789 732.542 180.531L732.59 180.58Z" fill="#090814"/>
<path d="M716.339 212.504L719.805 199.83C719.805 199.83 716.071 202.352 713.798 197.849L707.467 208.476L716.339 212.504Z" fill="#090814"/>
<path d="M753.571 230.027C752.637 230.668 751.674 231.269 750.685 231.827L751.503 229.551L753.571 230.027Z" fill="#ED9DA0"/>
<path d="M758.021 226.492C756.626 227.773 755.139 228.955 753.571 230.027C752.637 230.668 751.674 231.269 750.685 231.827C749.643 232.419 748.573 232.963 747.476 233.46C747.408 233.491 747.34 233.521 747.271 233.551C745.57 234.31 743.805 234.953 741.989 235.471C741.502 235.61 741.012 235.74 740.518 235.86C738.324 236.396 736.058 236.751 733.739 236.907C733.209 232.461 732.65 227.016 732.353 221.815C731.944 214.634 732.038 207.921 733.406 204.948C733.406 204.948 733.997 202.237 734.306 199.521C734.499 197.815 734.583 196.108 734.341 195.067C734.216 194.528 734.003 194.167 733.673 194.077C733.673 194.077 733.805 194.072 734.026 194.076H734.027C735.216 194.097 739.015 194.367 739.167 196.948L749.614 201.271L758.021 226.492Z" fill="#090814"/>
<path d="M748.446 229.006L747.476 233.46C747.408 233.491 747.34 233.521 747.271 233.551L748.261 229.012L745.023 217.391L745.196 217.343L748.446 229.006Z" fill="white"/>
</g>
<g clip-path="url(#clip1_1_2)">
<path d="M632.205 178.276C633.275 180.754 634.118 183.31 636.478 183.31C637.611 183.31 638.698 182.78 639.499 181.836C640.301 180.892 640.751 179.611 640.751 178.276C640.751 176.941 640.301 175.661 639.499 174.717C638.698 173.773 637.611 173.243 636.478 173.243C634.08 173.207 630.214 173.664 632.205 178.276Z" fill="#2F2E41"/>
<path d="M635.564 238.813L633.737 239.293L631.299 231.223L633.994 230.516L635.564 238.813Z" fill="#A0616A"/>
<path d="M636.424 240.776L630.536 242.322L630.519 242.234C630.452 241.88 630.445 241.513 630.498 241.155C630.551 240.798 630.664 240.456 630.829 240.149C630.994 239.842 631.209 239.577 631.462 239.369C631.714 239.16 631.999 239.012 632.3 238.933L632.3 238.933L635.897 237.989L636.424 240.776Z" fill="#2F2E41"/>
<path d="M640.989 241.697H639.118L638.227 233.196L640.989 233.196L640.989 241.697Z" fill="#A0616A"/>
<path d="M641.466 243.834L635.433 243.834V243.744C635.433 243.381 635.494 243.021 635.612 242.685C635.73 242.35 635.903 242.045 636.121 241.788C636.339 241.531 636.598 241.327 636.882 241.188C637.167 241.049 637.473 240.978 637.781 240.978H637.781L641.466 240.978L641.466 243.834Z" fill="#2F2E41"/>
<path d="M641.001 237.243H638.613C638.447 237.242 638.287 237.171 638.162 237.042C638.037 236.914 637.956 236.737 637.933 236.543L635.768 216.819C635.761 216.757 635.736 216.7 635.697 216.658C635.658 216.615 635.608 216.59 635.556 216.586C635.503 216.582 635.451 216.6 635.408 216.636C635.365 216.673 635.334 216.725 635.32 216.786L634.037 222.418L635.194 235.245C635.213 235.443 635.17 235.642 635.073 235.805C634.976 235.967 634.831 236.082 634.666 236.126L632.772 236.641C632.604 236.686 632.427 236.655 632.277 236.554C632.127 236.453 632.015 236.29 631.962 236.096L628.912 223.626C628.666 222.712 628.582 221.749 628.664 220.795L629.618 209.553L629.691 209.557L642.432 210.281L641.687 236.462C641.682 236.672 641.607 236.871 641.479 237.016C641.35 237.162 641.179 237.243 641.001 237.243Z" fill="#2F2E41"/>
<path d="M636.268 183.408C638.338 183.408 640.016 181.431 640.016 178.992C640.016 176.554 638.338 174.577 636.268 174.577C634.198 174.577 632.519 176.554 632.519 178.992C632.519 181.431 634.198 183.408 636.268 183.408Z" fill="#A0616A"/>
<path d="M642.147 211.491C642.135 211.491 642.122 211.491 642.11 211.49L629.406 210.686C629.301 210.679 629.198 210.644 629.107 210.584C629.015 210.523 628.936 210.439 628.877 210.337C628.817 210.235 628.778 210.118 628.763 209.995C628.748 209.873 628.757 209.748 628.789 209.63L629.794 205.952C630.871 202.009 631.055 197.802 630.328 193.75C630.138 192.689 630.141 191.593 630.339 190.534C630.538 189.476 630.925 188.479 631.476 187.611C632.019 186.755 632.71 186.045 633.503 185.529C634.297 185.013 635.175 184.703 636.079 184.619C636.141 184.613 636.204 184.608 636.266 184.603C637.222 184.537 638.179 184.722 639.067 185.147C639.954 185.571 640.75 186.224 641.396 187.056C642.043 187.889 642.523 188.882 642.802 189.961C643.082 191.04 643.153 192.179 643.011 193.295L642.125 200.302L642.831 210.618C642.839 210.729 642.827 210.841 642.796 210.946C642.765 211.052 642.716 211.149 642.651 211.231C642.587 211.313 642.509 211.379 642.422 211.423C642.335 211.468 642.242 211.491 642.147 211.491Z" fill="#CCCCCC"/>
<path d="M626.514 212.423C626.7 212.274 626.856 212.08 626.971 211.853C627.086 211.626 627.158 211.373 627.181 211.11C627.203 210.847 627.177 210.581 627.103 210.332C627.03 210.082 626.91 209.854 626.754 209.665L629.2 203.923L626.386 204.316L624.494 209.708C624.242 210.039 624.101 210.467 624.098 210.912C624.096 211.357 624.232 211.788 624.481 212.122C624.73 212.457 625.074 212.672 625.449 212.728C625.824 212.783 626.203 212.674 626.514 212.423Z" fill="#A0616A"/>
<path d="M643.307 213.358C643.144 213.176 643.018 212.953 642.937 212.707C642.856 212.461 642.821 212.196 642.836 211.933C642.851 211.669 642.914 211.412 643.022 211.181C643.131 210.949 643.28 210.748 643.462 210.592L641.864 204.45L644.583 205.391L645.683 211.08C645.885 211.455 645.964 211.906 645.903 212.345C645.842 212.784 645.647 213.182 645.354 213.463C645.061 213.743 644.691 213.888 644.313 213.869C643.936 213.85 643.578 213.668 643.307 213.358Z" fill="#A0616A"/>
<path d="M643.042 210.141C642.876 210.141 642.715 210.07 642.589 209.941C642.464 209.811 642.383 209.632 642.362 209.438L641.091 198.144L639.064 189.318C638.978 188.945 638.966 188.554 639.027 188.174C639.088 187.795 639.222 187.436 639.419 187.127C639.615 186.817 639.868 186.564 640.159 186.386C640.451 186.209 640.773 186.112 641.101 186.102C641.62 186.089 642.127 186.296 642.528 186.685C642.929 187.074 643.199 187.62 643.288 188.223L646.309 209.067C646.325 209.18 646.321 209.296 646.296 209.407C646.272 209.518 646.227 209.622 646.166 209.711C646.105 209.801 646.028 209.873 645.941 209.925C645.854 209.977 645.758 210.006 645.661 210.011L643.072 210.14C643.062 210.14 643.052 210.141 643.042 210.141Z" fill="#CCCCCC"/>
<path d="M627.876 208.872C627.827 208.872 627.778 208.866 627.73 208.854L625.196 208.217C625.1 208.193 625.01 208.146 624.932 208.078C624.853 208.009 624.788 207.922 624.74 207.822C624.692 207.722 624.663 207.611 624.655 207.497C624.646 207.382 624.659 207.267 624.691 207.159L630.626 187.202C630.8 186.626 631.143 186.141 631.594 185.837C632.045 185.533 632.573 185.428 633.084 185.542C633.406 185.616 633.709 185.775 633.971 186.008C634.233 186.24 634.447 186.54 634.597 186.884C634.746 187.228 634.827 187.607 634.834 187.994C634.841 188.38 634.773 188.763 634.636 189.114L631.381 197.427L628.529 208.302C628.487 208.467 628.4 208.611 628.283 208.714C628.165 208.817 628.022 208.872 627.876 208.872Z" fill="#CCCCCC"/>
<path d="M632.29 176.497C633.147 177.193 634.163 177.563 635.204 177.558C634.833 177.861 634.41 178.066 633.965 178.158C635.349 178.507 636.778 178.517 638.164 178.186C638.472 178.127 638.77 178.007 639.043 177.83C639.18 177.74 639.298 177.618 639.392 177.471C639.485 177.323 639.551 177.155 639.586 176.975C639.678 176.355 639.268 175.792 638.842 175.412C638.189 174.84 637.437 174.446 636.639 174.258C635.841 174.07 635.018 174.094 634.229 174.327C633.714 174.484 633.198 174.749 632.863 175.236C632.528 175.723 632.429 176.475 632.748 176.977L632.29 176.497Z" fill="#2F2E41"/>
<path d="M612.732 144H548.331C547.978 144 547.64 144.166 547.39 144.46C547.141 144.753 547 145.152 547 145.568V219.513C547 219.928 547.141 220.327 547.39 220.621C547.64 220.915 547.978 221.08 548.331 221.08H553.977V220.633H548.331C548.079 220.632 547.837 220.514 547.659 220.304C547.481 220.094 547.38 219.81 547.38 219.513V145.568C547.38 145.271 547.481 144.986 547.659 144.776C547.837 144.566 548.079 144.448 548.331 144.448H612.732C612.984 144.448 613.226 144.566 613.404 144.776C613.583 144.986 613.683 145.27 613.684 145.568V219.513C613.684 219.732 613.629 219.945 613.527 220.128C613.435 220.288 613.312 220.419 613.166 220.509C613.032 220.591 612.883 220.633 612.732 220.633H607.085V221.08H612.732C612.924 221.08 613.114 221.031 613.289 220.936C613.463 220.841 613.619 220.703 613.743 220.53C613.754 220.517 613.764 220.502 613.772 220.487C613.852 220.373 613.916 220.245 613.963 220.108C614.03 219.919 614.064 219.717 614.064 219.513V145.568C614.063 145.152 613.923 144.753 613.673 144.459C613.423 144.165 613.085 144 612.732 144Z" fill="#3F3D56"/>
<path d="M613.873 150.284H547.19V150.732H613.873V150.284Z" fill="#3F3D56"/>
<path d="M550.423 148.706C551.054 148.706 551.564 148.104 551.564 147.362C551.564 146.619 551.054 146.017 550.423 146.017C549.793 146.017 549.282 146.619 549.282 147.362C549.282 148.104 549.793 148.706 550.423 148.706Z" fill="#3F3D56"/>
<path d="M553.704 148.706C554.335 148.706 554.846 148.104 554.846 147.362C554.846 146.619 554.335 146.017 553.704 146.017C553.074 146.017 552.563 146.619 552.563 147.362C552.563 148.104 553.074 148.706 553.704 148.706Z" fill="#3F3D56"/>
<path d="M556.986 148.706C557.616 148.706 558.127 148.104 558.127 147.362C558.127 146.619 557.616 146.017 556.986 146.017C556.355 146.017 555.844 146.619 555.844 147.362C555.844 148.104 556.355 148.706 556.986 148.706Z" fill="#3F3D56"/>
<path d="M596.632 160.657H564.432C563.905 160.657 563.401 160.411 563.029 159.973C562.657 159.534 562.448 158.94 562.448 158.32C562.448 157.7 562.657 157.106 563.029 156.668C563.401 156.229 563.905 155.983 564.432 155.983H596.632C597.158 155.983 597.663 156.229 598.035 156.668C598.407 157.106 598.616 157.7 598.616 158.32C598.616 158.94 598.407 159.534 598.035 159.973C597.663 160.411 597.158 160.657 596.632 160.657ZM564.432 156.343C563.986 156.343 563.559 156.551 563.245 156.922C562.93 157.293 562.753 157.796 562.753 158.32C562.753 158.845 562.93 159.348 563.245 159.718C563.559 160.089 563.986 160.298 564.432 160.298H596.632C597.077 160.298 597.504 160.089 597.819 159.718C598.134 159.348 598.311 158.845 598.311 158.32C598.311 157.796 598.134 157.293 597.819 156.922C597.504 156.551 597.077 156.343 596.632 156.343H564.432Z" fill="#3F3D56"/>
<path d="M604.797 193.303H556.267C555.579 193.302 554.92 192.98 554.433 192.407C553.947 191.834 553.673 191.057 553.673 190.247V171.91C553.673 171.1 553.947 170.323 554.433 169.75C554.92 169.177 555.579 168.855 556.267 168.854H604.797C605.484 168.855 606.144 169.177 606.63 169.75C607.117 170.323 607.39 171.1 607.391 171.91V190.247C607.39 191.057 607.117 191.834 606.63 192.407C606.144 192.98 605.484 193.302 604.797 193.303ZM556.267 169.213C555.66 169.214 555.078 169.499 554.649 170.004C554.22 170.51 553.979 171.195 553.978 171.91V190.247C553.979 190.962 554.22 191.648 554.649 192.153C555.078 192.659 555.66 192.943 556.267 192.944H604.797C605.403 192.943 605.985 192.659 606.414 192.153C606.844 191.648 607.085 190.962 607.086 190.247V171.91C607.085 171.195 606.844 170.51 606.414 170.004C605.985 169.499 605.403 169.214 604.797 169.213H556.267Z" fill="#3F3D56"/>
<path d="M586.896 180.09H569.956C569.632 180.09 569.322 179.938 569.093 179.669C568.864 179.399 568.735 179.033 568.735 178.652C568.735 178.27 568.864 177.904 569.093 177.635C569.322 177.365 569.632 177.213 569.956 177.213H586.896C587.22 177.213 587.53 177.365 587.759 177.635C587.988 177.904 588.117 178.27 588.117 178.652C588.117 179.033 587.988 179.399 587.759 179.669C587.53 179.938 587.22 180.09 586.896 180.09Z" fill="#FF5521"/>
<path d="M602.614 184.944H569.956C569.632 184.944 569.322 184.792 569.093 184.523C568.864 184.253 568.735 183.887 568.735 183.506C568.735 183.124 568.864 182.758 569.093 182.489C569.322 182.219 569.632 182.067 569.956 182.067H602.614C602.938 182.067 603.249 182.219 603.478 182.489C603.707 182.758 603.835 183.124 603.835 183.506C603.835 183.887 603.707 184.253 603.478 184.523C603.249 184.792 602.938 184.944 602.614 184.944Z" fill="#FF5521"/>
<path d="M561.807 186.472C564.335 186.472 566.385 184.057 566.385 181.079C566.385 178.1 564.335 175.685 561.807 175.685C559.278 175.685 557.228 178.1 557.228 181.079C557.228 184.057 559.278 186.472 561.807 186.472Z" fill="#FF5521"/>
<path d="M602.613 190.787H598.34C598.016 190.787 597.705 190.635 597.476 190.365C597.247 190.096 597.119 189.73 597.119 189.348C597.119 188.967 597.247 188.601 597.476 188.331C597.705 188.062 598.016 187.91 598.34 187.91H602.613C602.936 187.91 603.247 188.062 603.476 188.331C603.705 188.601 603.833 188.967 603.833 189.348C603.833 189.73 603.705 190.096 603.476 190.365C603.247 190.635 602.936 190.787 602.613 190.787Z" fill="white"/>
<path d="M602.613 190.787H598.34C598.016 190.787 597.705 190.635 597.476 190.365C597.247 190.096 597.119 189.73 597.119 189.348C597.119 188.967 597.247 188.601 597.476 188.331C597.705 188.062 598.016 187.91 598.34 187.91H602.613C602.936 187.91 603.247 188.062 603.476 188.331C603.705 188.601 603.833 188.967 603.833 189.348C603.833 189.73 603.705 190.096 603.476 190.365C603.247 190.635 602.936 190.787 602.613 190.787Z" fill="#CCCCCC"/>
<path d="M604.796 201.933H556.266C555.579 201.934 554.919 202.256 554.433 202.829C553.947 203.402 553.673 204.179 553.672 204.989V223.326C553.673 224.136 553.947 224.913 554.433 225.486C554.919 226.059 555.579 226.381 556.266 226.382H604.796C605.484 226.381 606.143 226.059 606.63 225.486C607.116 224.913 607.39 224.136 607.39 223.326V204.989C607.39 204.178 607.116 203.402 606.63 202.829C606.143 202.256 605.484 201.933 604.796 201.933ZM607.085 223.326C607.085 224.041 606.843 224.726 606.414 225.232C605.985 225.738 605.403 226.022 604.796 226.022H556.266C555.66 226.022 555.078 225.737 554.649 225.232C554.219 224.726 553.978 224.041 553.977 223.326V204.989C553.978 204.274 554.219 203.588 554.649 203.083C555.078 202.577 555.66 202.293 556.266 202.292H604.796C605.403 202.293 605.985 202.577 606.414 203.083C606.843 203.588 607.085 204.274 607.085 204.989V223.326Z" fill="#3F3D56"/>
<path d="M586.896 213.169H569.956C569.632 213.169 569.322 213.017 569.093 212.747C568.864 212.478 568.735 212.112 568.735 211.73C568.735 211.349 568.864 210.983 569.093 210.713C569.322 210.444 569.632 210.292 569.956 210.292H586.896C587.22 210.292 587.53 210.444 587.759 210.713C587.988 210.983 588.117 211.349 588.117 211.73C588.117 212.112 587.988 212.478 587.759 212.747C587.53 213.017 587.22 213.169 586.896 213.169Z" fill="#FF5521"/>
<path d="M602.614 218.022H569.956C569.632 218.022 569.322 217.871 569.093 217.601C568.864 217.332 568.735 216.966 568.735 216.584C568.735 216.203 568.864 215.837 569.093 215.567C569.322 215.298 569.632 215.146 569.956 215.146H602.614C602.938 215.146 603.249 215.298 603.478 215.567C603.707 215.837 603.835 216.203 603.835 216.584C603.835 216.966 603.707 217.332 603.478 217.601C603.249 217.871 602.938 218.022 602.614 218.022Z" fill="#FF5521"/>
<path d="M561.807 219.551C564.335 219.551 566.385 217.136 566.385 214.157C566.385 211.179 564.335 208.764 561.807 208.764C559.278 208.764 557.228 211.179 557.228 214.157C557.228 217.136 559.278 219.551 561.807 219.551Z" fill="#FF5521"/>
<path d="M602.613 223.865H598.34C598.016 223.865 597.705 223.714 597.476 223.444C597.247 223.174 597.119 222.808 597.119 222.427C597.119 222.046 597.247 221.68 597.476 221.41C597.705 221.14 598.016 220.989 598.34 220.989H602.613C602.936 220.989 603.247 221.14 603.476 221.41C603.705 221.68 603.833 222.046 603.833 222.427C603.833 222.808 603.705 223.174 603.476 223.444C603.247 223.714 602.936 223.865 602.613 223.865Z" fill="#CCCCCC"/>
<path d="M646.847 244H625.482C625.442 244 625.403 243.981 625.374 243.947C625.346 243.914 625.33 243.868 625.33 243.82C625.33 243.773 625.346 243.727 625.374 243.693C625.403 243.659 625.442 243.64 625.482 243.64H646.847C646.888 243.64 646.927 243.659 646.955 243.693C646.984 243.727 647 243.773 647 243.82C647 243.868 646.984 243.914 646.955 243.947C646.927 243.981 646.888 244 646.847 244Z" fill="#3F3D56"/>
</g>
<g clip-path="url(#clip2_1_2)">
<path d="M597.367 438.636C597.359 438.724 597.39 438.812 597.455 438.88C597.52 438.948 597.613 438.991 597.714 439H770.489C770.587 438.985 770.676 438.94 770.74 438.873C770.803 438.807 770.838 438.723 770.838 438.636C770.838 438.549 770.803 438.465 770.74 438.399C770.676 438.332 770.587 438.287 770.489 438.272H597.714C597.613 438.281 597.52 438.324 597.455 438.392C597.39 438.46 597.359 438.548 597.367 438.636Z" fill="#D6D6E3"/>
<path d="M690.206 402.727C689.955 404.237 689.088 405.618 687.765 406.617C686.442 407.615 684.75 408.165 683 408.165C681.25 408.165 679.558 407.615 678.235 406.617C676.912 405.618 676.045 404.237 675.794 402.727H657.357V438.272H708.643V402.727H690.206Z" fill="#D6D6E3"/>
<path d="M786.141 403.637H579.859C579.101 403.636 578.374 403.373 577.838 402.906C577.302 402.439 577.001 401.805 577 401.144V298.493C577.001 297.832 577.302 297.198 577.838 296.731C578.374 296.264 579.101 296.001 579.859 296H786.141C786.899 296.001 787.625 296.264 788.161 296.731C788.697 297.199 788.998 297.832 788.999 298.493V401.144C788.998 401.805 788.697 402.439 788.161 402.906C787.625 403.373 786.898 403.636 786.14 403.637H786.141Z" fill="#090814"/>
<path d="M784.186 300.16H582.323V399.477H784.186V300.16Z" fill="white"/>
<path d="M617.545 305.705H591.045C590.46 305.705 589.985 306.119 589.985 306.629V387.965C589.985 388.475 590.46 388.889 591.045 388.889H617.545C618.13 388.889 618.605 388.475 618.605 387.965V306.629C618.605 306.119 618.13 305.705 617.545 305.705Z" fill="#FF5521"/>
<path d="M601.645 309.171H606.945C607.367 309.171 607.771 309.317 608.069 309.577C608.367 309.837 608.535 310.19 608.535 310.557V311.482C608.535 311.849 608.367 312.202 608.069 312.462C607.771 312.722 607.367 312.868 606.945 312.868H601.645C601.223 312.868 600.819 312.722 600.521 312.462C600.222 312.202 600.055 311.849 600.055 311.482V310.557C600.055 310.19 600.222 309.837 600.521 309.577C600.819 309.317 601.223 309.171 601.645 309.171Z" fill="white"/>
<path d="M594.755 381.495H613.835C614.116 381.495 614.386 381.592 614.584 381.766C614.783 381.939 614.895 382.174 614.895 382.419V384.268C614.895 384.513 614.783 384.748 614.584 384.921C614.386 385.095 614.116 385.192 613.835 385.192H594.755C594.474 385.192 594.204 385.095 594.005 384.921C593.807 384.748 593.695 384.513 593.695 384.268V382.419C593.695 382.174 593.807 381.939 594.005 381.766C594.204 381.592 594.474 381.495 594.755 381.495Z" fill="white"/>
<path d="M628.41 305.705H647.49C647.771 305.705 648.04 305.802 648.239 305.976C648.438 306.149 648.55 306.384 648.55 306.629V308.478C648.55 308.723 648.438 308.958 648.239 309.131C648.04 309.305 647.771 309.402 647.49 309.402H628.41C628.129 309.402 627.859 309.305 627.66 309.131C627.462 308.958 627.35 308.723 627.35 308.478V306.629C627.35 306.384 627.462 306.149 627.66 305.976C627.859 305.802 628.129 305.705 628.41 305.705Z" fill="#F2F2F2"/>
<path d="M667.63 314.485H629.47C628.299 314.485 627.35 315.313 627.35 316.334V332.971C627.35 333.992 628.299 334.819 629.47 334.819H667.63C668.801 334.819 669.75 333.992 669.75 332.971V316.334C669.75 315.313 668.801 314.485 667.63 314.485Z" fill="#FF5521"/>
<path d="M612.775 316.565H595.815C594.644 316.565 593.695 317.393 593.695 318.414C593.695 319.434 594.644 320.262 595.815 320.262H612.775C613.946 320.262 614.895 319.434 614.895 318.414C614.895 317.393 613.946 316.565 612.775 316.565Z" fill="white"/>
<path d="M763.029 373.639H631.59C629.248 373.639 627.35 375.294 627.35 377.336V385.192C627.35 387.234 629.248 388.889 631.59 388.889H763.029C765.371 388.889 767.269 387.234 767.269 385.192V377.336C767.269 375.294 765.371 373.639 763.029 373.639Z" fill="#F2F2F2"/>
<path d="M747.129 305.705H766.209C766.49 305.705 766.76 305.802 766.959 305.976C767.158 306.149 767.269 306.384 767.269 306.629V308.478C767.269 308.723 767.158 308.958 766.959 309.131C766.76 309.305 766.49 309.402 766.209 309.402H747.129C746.848 309.402 746.579 309.305 746.38 309.131C746.181 308.958 746.069 308.723 746.069 308.478V306.629C746.069 306.384 746.181 306.149 746.38 305.976C746.579 305.802 746.848 305.705 747.129 305.705Z" fill="#FF5521"/>
<path opacity="0.149" d="M612.775 322.111H595.815C594.644 322.111 593.695 322.938 593.695 323.959C593.695 324.98 594.644 325.808 595.815 325.808H612.775C613.946 325.808 614.895 324.98 614.895 323.959C614.895 322.938 613.946 322.111 612.775 322.111Z" fill="white"/>
<path opacity="0.149" d="M612.775 327.656H595.815C594.644 327.656 593.695 328.484 593.695 329.505C593.695 330.526 594.644 331.353 595.815 331.353H612.775C613.946 331.353 614.895 330.526 614.895 329.505C614.895 328.484 613.946 327.656 612.775 327.656Z" fill="white"/>
<path opacity="0.149" d="M612.775 333.202H595.815C594.644 333.202 593.695 334.029 593.695 335.05C593.695 336.071 594.644 336.899 595.815 336.899H612.775C613.946 336.899 614.895 336.071 614.895 335.05C614.895 334.029 613.946 333.202 612.775 333.202Z" fill="white"/>
<path opacity="0.149" d="M612.775 338.747H595.815C594.644 338.747 593.695 339.575 593.695 340.596C593.695 341.617 594.644 342.445 595.815 342.445H612.775C613.946 342.445 614.895 341.617 614.895 340.596C614.895 339.575 613.946 338.747 612.775 338.747Z" fill="white"/>
<path d="M765.149 314.485H726.989C725.819 314.485 724.869 315.313 724.869 316.334V332.971C724.869 333.992 725.819 334.819 726.989 334.819H765.149C766.32 334.819 767.269 333.992 767.269 332.971V316.334C767.269 315.313 766.32 314.485 765.149 314.485Z" fill="#FF5521"/>
<path d="M716.389 314.485H678.23C677.059 314.485 676.11 315.313 676.11 316.334V332.971C676.11 333.992 677.059 334.819 678.23 334.819H716.389C717.56 334.819 718.509 333.992 718.509 332.971V316.334C718.509 315.313 717.56 314.485 716.389 314.485Z" fill="#FF5521"/>
<path d="M763.029 355.615H631.59C629.248 355.615 627.35 357.271 627.35 359.312V367.169C627.35 369.211 629.248 370.866 631.59 370.866H763.029C765.371 370.866 767.269 369.211 767.269 367.169V359.312C767.269 357.271 765.371 355.615 763.029 355.615Z" fill="#F2F2F2"/>
<path d="M763.029 337.592H631.59C629.248 337.592 627.35 339.247 627.35 341.289V349.146C627.35 351.187 629.248 352.843 631.59 352.843H763.029C765.371 352.843 767.269 351.187 767.269 349.146V341.289C767.269 339.247 765.371 337.592 763.029 337.592Z" fill="#F2F2F2"/>
</g>
<defs>
<clipPath id="clip0_1_2">
<rect width="80" height="80" fill="white" transform="translate(691 157)"/>
</clipPath>
<clipPath id="clip1_1_2">
<rect width="100" height="100" fill="white" transform="translate(547 144)"/>
</clipPath>
<clipPath id="clip2_1_2">
<rect width="212" height="143" fill="white" transform="translate(577 296)"/>
</clipPath>
</defs>
</svg>
